<?xml version="1.0" encoding="UTF-8" standalone="no"?>
<!DOCTYPE svg PUBLIC "-//W3C//DTD SVG 1.1//EN" "http://www.w3.org/Graphics/SVG/1.1/DTD/svg11.dtd">
<svg width="100%" height="100%" viewBox="0 0 512 512" version="1.1" xmlns="http://www.w3.org/2000/svg" xmlns:xlink="http://www.w3.org/1999/xlink" xml:space="preserve" xmlns:serif="http://www.serif.com/" style="fill-rule:evenodd;clip-rule:evenodd;stroke-linejoin:round;stroke-miterlimit:2;">
    <path d="M428.8,137.6L342.623,137.6C344.076,130.222 344.804,122.72 344.799,115.2C344.799,67.286 309.727,32 252.799,32C207.485,32 195.797,80.537 177.092,110.784C169.357,123.197 160.098,134.101 151.241,144.037L151.11,144.183L150.981,144.331C135.662,161.807 127.764,168 120.8,168L118.121,168C112.374,163.048 104.585,160 96.001,160L32,160C14.327,160 0,172.894 0,188.8L0,419.2C0,435.106 14.327,448 32,448L96,448C104.584,448 112.373,444.952 118.12,440L120.799,440C149.487,440 187.936,480 247.999,480L269.298,480C331.84,480 368.098,441.342 369.238,388.855C381.72,371.042 387.729,348.07 385.223,326.064C388.785,319.073 391.449,311.659 393.152,304L428.8,304C474.235,304 512,266.416 512,220.8C512,175.701 473.899,137.6 428.8,137.6ZM428.8,256L337.774,256C350.611,270.669 352.189,298.825 332.824,317.05C344.051,336.696 334.511,362.674 319.899,370.675C326.423,409.803 309.823,432 269.299,432L248,432C202.509,432 170.79,396.087 128,392.324L128,215.571C153.239,212.607 170.966,194.349 187.075,175.975C198.35,163.325 208.8,150.675 217.874,136.1C232.355,112.712 244.006,80 252.8,80C276.175,80 296.8,88.8 296.8,115.2C296.8,150.4 270.4,168.275 270.4,185.6L428.8,185.6C447.225,185.6 464,202.1 464,220.8C464,239.775 447.775,256 428.8,256ZM88,384C88,397.255 77.255,408 64,408C50.745,408 40,397.255 40,384C40,370.745 50.745,360 64,360C77.255,360 88,370.745 88,384Z" style="fill:rgb(155,103,46);fill-rule:nonzero;"/>
</svg>
