<?xml version="1.0" encoding="UTF-8" standalone="no"?>
<!DOCTYPE svg PUBLIC "-//W3C//DTD SVG 1.1//EN" "http://www.w3.org/Graphics/SVG/1.1/DTD/svg11.dtd">
<svg width="100%" height="100%" viewBox="0 0 512 512" version="1.1" xmlns="http://www.w3.org/2000/svg" xmlns:xlink="http://www.w3.org/1999/xlink" xml:space="preserve" xmlns:serif="http://www.serif.com/" style="fill-rule:evenodd;clip-rule:evenodd;stroke-linejoin:round;stroke-miterlimit:2;">
    <path d="M0,220.8C0,266.416 37.765,304 83.2,304L118.847,304C120.55,311.659 123.214,319.073 126.776,326.064C124.269,348.07 130.279,371.042 142.761,388.855C143.9,441.342 180.159,480 242.701,480L264,480C324.063,480 362.512,440 391.2,440L393.879,440C399.626,444.952 407.415,448 415.999,448L479.999,448C497.672,448 511.999,435.106 511.999,419.2L511.999,188.8C511.999,172.894 497.672,160 479.999,160L415.999,160C407.415,160 399.626,163.048 393.879,168L391.2,168C384.236,168 376.338,161.807 361.017,144.332L360.888,144.184L360.757,144.038C351.901,134.101 342.641,123.197 334.906,110.785C316.202,80.537 304.514,32 259.2,32C202.272,32 167.2,67.286 167.2,115.2C167.2,123.226 168.014,130.689 169.376,137.6L83.2,137.6C38.101,137.6 0,175.701 0,220.8ZM48,220.8C48,202.1 64.775,185.6 83.2,185.6L241.6,185.6C241.6,168.275 215.2,150.4 215.2,115.2C215.2,88.8 235.825,80 259.2,80C267.994,80 279.645,112.712 294.126,136.1C303.2,150.675 313.65,163.325 324.925,175.975C341.034,194.349 358.761,212.608 384,215.571L384,392.323C341.21,396.087 309.491,432 264,432L242.701,432C202.177,432 185.577,409.803 192.1,370.675C177.488,362.674 167.949,336.696 179.175,317.05C159.81,298.825 161.388,270.669 174.225,256L83.2,256C64.225,256 48,239.775 48,220.8ZM448,360C461.255,360 472,370.745 472,384C472,397.255 461.255,408 448,408C434.745,408 424,397.255 424,384C424,370.745 434.745,360 448,360Z" style="fill:rgb(146,149,20);fill-rule:nonzero;"/>
</svg>
