<?xml version="1.0" encoding="UTF-8" standalone="no"?>
<!DOCTYPE svg PUBLIC "-//W3C//DTD SVG 1.1//EN" "http://www.w3.org/Graphics/SVG/1.1/DTD/svg11.dtd">
<svg width="100%" height="100%" viewBox="0 0 512 512" version="1.1" xmlns="http://www.w3.org/2000/svg" xmlns:xlink="http://www.w3.org/1999/xlink" xml:space="preserve" xmlns:serif="http://www.serif.com/" style="fill-rule:evenodd;clip-rule:evenodd;stroke-linejoin:round;stroke-miterlimit:2;">
    <g id="Hidden">
        <g transform="matrix(1,0,0,1,-465.252,-217.057)">
            <g id="Layer1">
            </g>
        </g>
    </g>
    <g id="Bkg">
    </g>
    <g id="Community" transform="matrix(0.316154,0,0,0.316154,90.7777,338.592)">
        <g transform="matrix(91.6667,0,0,91.6667,198.332,339.442)">
            <path d="M0.661,-0.655L0.661,-0.736L0.755,-0.736L0.755,-0.5L0.659,-0.5C0.635,-0.547 0.602,-0.584 0.56,-0.61C0.518,-0.637 0.472,-0.65 0.422,-0.65C0.373,-0.65 0.33,-0.637 0.292,-0.612C0.254,-0.586 0.224,-0.552 0.203,-0.509C0.182,-0.466 0.171,-0.42 0.171,-0.371C0.171,-0.32 0.182,-0.273 0.204,-0.23C0.227,-0.188 0.257,-0.153 0.296,-0.127C0.335,-0.102 0.379,-0.089 0.427,-0.089C0.486,-0.089 0.538,-0.107 0.583,-0.143C0.628,-0.179 0.661,-0.23 0.682,-0.296L0.776,-0.246C0.75,-0.164 0.706,-0.101 0.641,-0.055C0.577,-0.01 0.502,0.012 0.415,0.012C0.344,0.012 0.28,-0.005 0.225,-0.039C0.17,-0.073 0.127,-0.119 0.096,-0.176C0.065,-0.233 0.05,-0.297 0.05,-0.365C0.05,-0.44 0.066,-0.506 0.097,-0.564C0.128,-0.623 0.172,-0.668 0.227,-0.7C0.282,-0.732 0.346,-0.748 0.417,-0.748C0.465,-0.748 0.509,-0.74 0.549,-0.724C0.59,-0.708 0.627,-0.685 0.661,-0.655Z" style="fill:rgb(247,229,213);fill-rule:nonzero;"/>
        </g>
        <g transform="matrix(91.6667,0,0,91.6667,273.885,339.442)">
            <path d="M0.811,-0.37C0.811,-0.295 0.795,-0.229 0.761,-0.17C0.728,-0.112 0.683,-0.067 0.625,-0.035C0.566,-0.004 0.5,0.012 0.426,0.012C0.353,0.012 0.287,-0.004 0.23,-0.037C0.174,-0.07 0.129,-0.116 0.097,-0.175C0.066,-0.233 0.05,-0.299 0.05,-0.372C0.05,-0.445 0.066,-0.509 0.098,-0.566C0.131,-0.623 0.175,-0.668 0.232,-0.7C0.289,-0.732 0.354,-0.748 0.427,-0.748C0.502,-0.748 0.569,-0.732 0.627,-0.698C0.686,-0.665 0.731,-0.62 0.763,-0.563C0.795,-0.506 0.811,-0.441 0.811,-0.37ZM0.43,-0.086C0.481,-0.086 0.526,-0.099 0.565,-0.125C0.605,-0.152 0.636,-0.187 0.657,-0.23C0.679,-0.274 0.69,-0.321 0.69,-0.37C0.69,-0.421 0.678,-0.467 0.656,-0.51C0.633,-0.554 0.601,-0.588 0.561,-0.613C0.52,-0.637 0.475,-0.65 0.424,-0.65C0.374,-0.65 0.33,-0.638 0.292,-0.614C0.253,-0.589 0.223,-0.556 0.202,-0.513C0.181,-0.471 0.171,-0.423 0.171,-0.371C0.171,-0.316 0.181,-0.266 0.202,-0.223C0.223,-0.18 0.254,-0.146 0.293,-0.122C0.332,-0.098 0.378,-0.086 0.43,-0.086Z" style="fill:rgb(247,229,213);fill-rule:nonzero;"/>
        </g>
        <g transform="matrix(91.6667,0,0,91.6667,352.796,339.442)">
            <path d="M0.672,-0.736L0.927,-0.736L0.927,-0.644L0.838,-0.644L0.838,-0.092L0.927,-0.092L0.927,0L0.65,0L0.65,-0.092L0.737,-0.092L0.737,-0.644L0.484,0.008L0.462,0.008L0.211,-0.644L0.211,-0.092L0.292,-0.092L0.292,0L0.031,0L0.031,-0.092L0.12,-0.092L0.12,-0.644L0.031,-0.644L0.031,-0.736L0.283,-0.736L0.477,-0.232L0.672,-0.736Z" style="fill:rgb(247,229,213);fill-rule:nonzero;"/>
        </g>
        <g transform="matrix(91.6667,0,0,91.6667,440.613,339.442)">
            <path d="M0.672,-0.736L0.927,-0.736L0.927,-0.644L0.838,-0.644L0.838,-0.092L0.927,-0.092L0.927,0L0.65,0L0.65,-0.092L0.737,-0.092L0.737,-0.644L0.484,0.008L0.462,0.008L0.211,-0.644L0.211,-0.092L0.292,-0.092L0.292,0L0.031,0L0.031,-0.092L0.12,-0.092L0.12,-0.644L0.031,-0.644L0.031,-0.736L0.283,-0.736L0.477,-0.232L0.672,-0.736Z" style="fill:rgb(247,229,213);fill-rule:nonzero;"/>
        </g>
        <g transform="matrix(91.6667,0,0,91.6667,528.431,339.442)">
            <path d="M0.225,-0.644L0.225,-0.269C0.225,-0.203 0.238,-0.155 0.263,-0.124C0.288,-0.093 0.325,-0.078 0.374,-0.078C0.424,-0.078 0.461,-0.093 0.487,-0.124C0.513,-0.154 0.526,-0.202 0.526,-0.268L0.526,-0.644L0.44,-0.644L0.44,-0.736L0.728,-0.736L0.728,-0.644L0.636,-0.644L0.636,-0.258C0.636,-0.17 0.614,-0.103 0.57,-0.057C0.525,-0.011 0.46,0.012 0.374,0.012C0.287,0.012 0.222,-0.011 0.179,-0.056C0.135,-0.102 0.114,-0.171 0.114,-0.264L0.114,-0.644L0.023,-0.644L0.023,-0.736L0.312,-0.736L0.312,-0.644L0.225,-0.644Z" style="fill:rgb(247,229,213);fill-rule:nonzero;"/>
        </g>
        <g transform="matrix(91.6667,0,0,91.6667,597.091,339.442)">
            <path d="M0.596,-0.644L0.491,-0.644L0.491,-0.736L0.793,-0.736L0.793,-0.644L0.685,-0.644L0.685,0.008L0.571,0.008L0.218,-0.621L0.218,-0.092L0.323,-0.092L0.323,0L0.022,0L0.022,-0.092L0.127,-0.092L0.127,-0.644L0.022,-0.644L0.022,-0.736L0.273,-0.736L0.596,-0.164L0.596,-0.644Z" style="fill:rgb(247,229,213);fill-rule:nonzero;"/>
        </g>
        <g transform="matrix(91.6667,0,0,91.6667,671.794,339.442)">
            <path d="M0.223,-0.644L0.223,-0.092L0.303,-0.092L0.303,0L0.032,0L0.032,-0.092L0.112,-0.092L0.112,-0.644L0.032,-0.644L0.032,-0.736L0.303,-0.736L0.303,-0.644L0.223,-0.644Z" style="fill:rgb(247,229,213);fill-rule:nonzero;"/>
        </g>
        <g transform="matrix(91.6667,0,0,91.6667,702.588,339.442)">
            <path d="M0.538,-0.467L0.538,-0.644L0.386,-0.644L0.386,-0.092L0.482,-0.092L0.482,0L0.181,0L0.181,-0.092L0.275,-0.092L0.275,-0.644L0.124,-0.644L0.124,-0.467L0.033,-0.467L0.033,-0.736L0.629,-0.736L0.629,-0.467L0.538,-0.467Z" style="fill:rgb(247,229,213);fill-rule:nonzero;"/>
        </g>
        <g transform="matrix(91.6667,0,0,91.6667,763.192,339.442)">
            <path d="M0.232,-0.644L0.393,-0.417L0.542,-0.644L0.45,-0.644L0.45,-0.736L0.744,-0.736L0.744,-0.644L0.648,-0.644L0.442,-0.335L0.442,-0.092L0.543,-0.092L0.543,0L0.232,0L0.232,-0.092L0.331,-0.092L0.331,-0.335L0.112,-0.644L0.022,-0.644L0.022,-0.736L0.324,-0.736L0.324,-0.644L0.232,-0.644Z" style="fill:rgb(247,229,213);fill-rule:nonzero;"/>
        </g>
    </g>
    <g id="Boxes" transform="matrix(1.17782,0,0,1.17782,-47.2451,-24.7419)">
        <g transform="matrix(1.95799,0,0,1.95799,-53.8983,-728.23)">
            <rect x="94.736" y="555.319" width="127.076" height="2.128" style="fill:rgb(247,229,213);"/>
        </g>
        <g transform="matrix(1.95799,0,0,1.95799,285.277,-930.807)">
            <rect x="72.575" y="623.681" width="22.368" height="6.384" style="fill:rgb(247,229,213);"/>
        </g>
        <g transform="matrix(1.95799,0,0,1.95799,-99.0238,-930.807)">
            <rect x="72.575" y="623.681" width="22.368" height="6.384" style="fill:rgb(247,229,213);"/>
        </g>
    </g>
    <g id="Title" transform="matrix(1.17782,0,0,1.17782,-47.2451,-24.7419)">
        <path d="M431.533,338.293L80.467,338.293L101.241,296.203L80.467,254.91L431.533,254.91L414.157,296.203L431.533,338.293ZM362.793,306.627C363.289,306.237 363.918,305.634 364.703,304.807C365.847,303.587 366.686,302.52 367.219,301.681C368.439,299.47 369.43,297.564 370.116,296.116C370.803,296.344 371.794,296.649 372.937,297.107L372.327,298.555L370.421,301.986C369.125,304.502 368.515,306.256 368.668,307.399C368.973,309.61 370.116,310.678 372.099,310.678C373.166,310.678 374.843,309.915 377.207,308.391L378.884,307.171C380.79,305.493 381.629,304.35 381.476,303.664C381.4,303.435 381.248,303.282 380.943,303.206C380.561,303.054 380.256,303.054 379.875,303.282C377.131,305.57 375.529,306.866 374.996,307.171C373.471,308.086 372.556,308.314 372.251,307.933C371.794,307.399 372.48,305.493 374.31,302.215L376.216,298.937C377.054,297.488 377.512,296.573 377.436,296.268C377.359,295.887 377.131,295.506 376.749,295.277L374.92,294.82C374.615,294.743 372.861,293.905 372.48,293.828L372.251,293.981C371.641,293.752 371.336,293.6 371.26,293.523L371.489,292.456C371.794,291.236 371.031,289.406 369.811,289.711C369.354,289.788 369.049,290.093 368.82,290.474C368.668,291.236 368.592,291.694 368.515,291.77L368.287,293.295C368.134,294.286 367.677,295.734 366.99,297.564C366.609,298.555 366.152,299.47 365.466,300.461C363.667,302.548 362.207,304.159 361.024,305.231L359.061,306.332C357.46,307.247 356.393,307.552 355.859,307.323C355.783,307.323 356.545,305.951 358.223,303.206C361.501,297.793 363.255,294.82 363.331,294.286C363.407,293.828 363.102,293.523 362.416,293.447C361.349,293.219 360.434,293.6 359.671,294.438C359.366,294.743 358.833,295.582 357.994,297.031C358.07,293.981 356.85,292.456 354.334,292.456C352.276,292.456 350.065,293.676 347.778,296.039C344.919,298.96 343.377,301.83 343.153,304.609C339.75,306.648 337.48,307.781 336.342,307.857L338.629,304.045L342.212,298.327C343.508,296.192 344.271,294.82 344.347,294.286C344.423,293.905 344.042,293.6 343.356,293.447C342.365,293.295 341.678,293.447 341.145,293.981C340.459,294.743 339.696,295.734 338.934,296.954C339.01,293.905 337.714,292.38 335.122,292.38C333.216,292.38 331.157,293.6 328.794,296.039C325.852,299.173 324.305,302.092 324.108,304.886C323.448,305.238 322.57,305.698 321.475,306.332C319.873,307.247 318.806,307.552 318.272,307.323C318.12,307.323 318.882,305.951 320.636,303.206L324.067,297.869C325.363,295.811 326.125,294.438 326.202,293.905C326.278,293.523 325.897,293.219 325.21,293.066C324.219,292.837 323.457,292.99 322.923,293.523C321.017,296.192 319.645,298.403 318.654,300.08C317.205,302.596 315.909,304.197 314.613,304.96C311.487,306.866 309.581,307.628 308.819,307.323C308.666,307.323 309.428,305.951 311.182,303.206L314.613,297.869C315.909,295.811 316.671,294.438 316.748,293.905C316.824,293.523 316.443,293.219 315.756,293.066C314.765,292.837 314.003,292.99 313.545,293.523C312.478,294.667 311.03,296.802 309.2,300.08L307.37,303.359C305.769,306.256 304.93,307.857 304.854,308.162C304.625,309.382 304.93,310.068 305.921,310.22C307.675,310.449 309.505,310.068 311.487,309.077L313.85,307.933L315.375,306.637C314.384,308.086 314.079,309.077 314.384,309.61C314.613,309.992 314.918,310.144 315.299,310.22C317.434,310.449 319.95,309.839 322.771,308.238C323.364,307.911 323.875,307.6 324.306,307.306C324.826,309.351 326.068,310.373 328.031,310.373C329.175,310.373 330.471,309.915 331.92,308.924L331.462,309.687C326.659,311.745 324.143,314.337 322.008,318.226C320.788,320.437 320.178,322.419 320.178,324.096C320.178,325.85 320.712,326.841 321.703,327.07C322.694,327.298 323.838,326.765 325.134,325.316L327.04,323.029C327.116,322.8 327.574,322.114 328.336,320.97C329.251,319.674 329.632,318.988 330.242,317.997L334.436,310.983C335.732,310.601 337.485,309.992 339.544,309.153C340.635,308.704 341.887,307.985 343.302,307.041C343.771,309.262 344.969,310.373 347.015,310.373C348.54,310.373 350.141,309.61 351.895,308.162C351.666,309.458 351.971,310.144 352.886,310.22C355.097,310.449 357.613,309.839 360.434,308.238C361.473,307.644 362.26,307.104 362.793,306.627ZM236.341,308.483C234.497,311.572 233.344,313.566 232.882,314.49L230.443,318.683L230.29,318.988L229.833,319.674C228.765,321.275 228.155,322.724 228.003,323.944C227.851,325.392 228.308,326.078 229.452,326.078C232.12,326.078 235.093,323.715 238.448,318.912C240.202,316.396 240.964,314.337 240.659,312.812C240.43,311.745 240.049,311.211 239.439,311.135C239.744,311.364 239.897,311.669 239.897,312.203C239.897,313.956 238.905,316.167 236.923,318.836C234.941,321.504 233.111,323.181 231.434,323.867L231.586,323.105C232.273,321.58 232.959,320.36 233.721,319.369L239.134,310.297C241.116,310.22 243.175,309.534 245.386,308.314C247.597,307.018 248.664,306.027 248.664,305.341C248.664,304.655 248.207,304.35 247.292,304.578L244.166,306.332C242.565,307.247 241.498,307.552 240.964,307.323L245.996,298.937L252.781,287.653C254.077,285.518 254.84,284.146 254.916,283.612C254.992,283.155 254.687,282.85 254.001,282.774C253.01,282.545 252.248,282.697 251.714,283.231C250.342,285.289 249.046,287.272 247.826,289.33L240.812,301.148L239.515,303.206C239.231,303.677 238.955,304.133 238.688,304.576L238.677,304.578C237.686,305.112 236.923,305.493 236.39,305.875C235.703,306.256 235.017,306.484 234.331,306.484C234.102,306.484 233.797,306.408 233.492,306.332C236.161,303.13 237.457,300.004 237.457,297.031C237.457,294.515 236.39,293.066 234.179,292.609C231.51,292.075 228.689,293.066 225.868,295.734C222.132,299.318 220.303,302.749 220.303,306.18C220.303,307.933 221.065,309.229 222.59,309.992C223.962,310.678 225.563,310.754 227.317,310.373C228.537,310.068 229.68,309.534 230.824,308.848C231.281,309 231.815,309.077 232.349,309.077C233.877,309.21 235.174,308.995 236.341,308.483ZM328.641,314.49L326.049,318.759C324.067,322.114 322.694,323.944 321.856,324.249C321.703,324.325 321.627,324.249 321.551,324.02C321.475,323.791 321.475,323.486 321.551,323.105C321.856,320.97 322.771,318.912 324.372,316.93C325.82,315.1 327.574,313.651 329.632,312.66L328.641,314.49ZM186.868,308.97L184.469,313.041L181.191,318.607C180.886,319.293 180.81,319.674 180.962,319.903C181.039,319.979 181.267,320.055 181.648,320.132C182.64,320.208 183.402,320.132 183.936,319.75C184.241,319.522 184.698,318.912 185.308,317.921L192.703,305.57L192.703,305.951C192.475,308.772 193.39,310.22 195.296,310.297C195.906,310.449 196.592,310.525 197.278,310.449C201.166,310.297 204.292,309.534 206.503,308.238L208.485,307.094C209.324,306.484 209.781,305.875 209.705,305.341C209.705,304.655 209.248,304.35 208.333,304.578L205.207,306.332C203.682,307.171 202.615,307.552 202.005,307.399C206.046,303.969 207.952,300.233 207.723,296.192C207.57,293.828 206.503,292.609 204.445,292.609C202.843,292.609 201.09,293.371 199.184,294.896C199.565,294.133 199.794,293.6 199.87,293.219C199.946,292.761 199.641,292.456 198.955,292.38C197.964,292.227 197.202,292.38 196.668,292.914C195.982,293.6 194.686,295.658 192.78,298.937L189.117,305.153C188.534,305.464 187.824,305.847 186.985,306.332C185.384,307.247 184.317,307.552 183.783,307.323C183.631,307.323 184.393,305.951 186.147,303.206L189.578,297.869C190.874,295.811 191.636,294.438 191.712,293.905C191.788,293.523 191.407,293.219 190.721,293.066C189.73,292.837 188.968,292.99 188.434,293.523C186.528,296.192 185.156,298.403 184.164,300.08C182.716,302.596 181.42,304.197 180.124,304.96C176.998,306.866 175.092,307.628 174.329,307.323C174.177,307.323 174.939,305.951 176.693,303.206L180.124,297.869C181.42,295.811 182.182,294.438 182.258,293.905C182.335,293.523 181.953,293.219 181.267,293.066C180.276,292.837 179.514,292.99 179.056,293.523C177.989,294.667 176.54,296.802 174.71,300.08L172.881,303.359C171.28,306.256 170.441,307.857 170.365,308.162C170.136,309.382 170.441,310.068 171.432,310.22C173.186,310.449 175.015,310.068 176.998,309.077L179.361,307.933L180.886,306.637C179.895,308.086 179.59,309.077 179.895,309.61C180.124,309.992 180.429,310.144 180.81,310.22C182.581,310.41 184.615,310.022 186.868,308.97ZM309.047,274.387C309.124,272.557 308.437,270.956 306.913,269.66C304.473,267.525 301.042,266.534 296.696,266.687C291.741,266.839 288.157,268.364 285.87,271.185C284.269,273.243 283.43,275.378 283.43,277.665C283.43,279.19 283.888,280.791 284.879,282.545C287.09,285.594 289.225,288.263 291.131,290.474C293.952,293.752 295.4,296.573 295.4,298.937C295.4,299.852 295.171,300.766 294.79,301.605C292.122,307.476 286.937,310.373 279.237,310.373C278.322,310.373 277.331,310.297 276.34,310.22C269.707,309.534 266.124,307.247 265.514,303.359C265.285,301.605 265.59,300.004 266.429,298.479C268.792,294.286 272.985,292.38 278.856,292.761C281.372,292.914 283.049,293.676 283.964,295.125C284.04,295.353 284.116,295.582 284.116,295.811C284.116,296.802 283.583,297.717 282.515,298.708C282.897,298.784 283.202,298.784 283.583,298.784C284.421,298.784 285.413,298.555 286.404,298.098C288.157,297.336 289.072,296.268 289.072,294.972C289.072,293.219 288.005,291.922 285.946,291.008C284.345,290.321 282.592,289.94 280.533,289.94C275.12,289.864 270.241,291.313 265.895,294.21C262.007,296.802 260.1,299.699 260.1,302.901C260.1,303.435 260.177,304.045 260.253,304.655C260.939,307.552 263.379,309.687 267.572,311.059C270.698,312.05 274.053,312.584 277.788,312.584C284.116,312.584 289.606,311.44 294.256,309.077C299.822,306.256 302.567,302.749 302.567,298.555C302.567,295.811 301.118,292.685 298.145,289.178L291.054,281.172C289.758,279.648 289.148,277.97 289.148,276.141C289.148,271.947 292.808,268.898 297.001,268.821C298.145,268.745 298.983,268.821 299.517,268.898C300.813,269.126 301.881,269.584 302.719,270.346C303.787,271.185 304.244,272.252 304.092,273.396C303.939,274.844 302.948,276.445 301.042,278.275C300.356,278.961 299.975,279.419 299.746,279.8C299.517,280.715 300.356,282.926 301.042,283.612C302.719,281.859 304.244,280.41 305.54,279.266C307.827,277.36 308.971,275.759 309.047,274.387ZM176.921,275.073C176.54,272.938 175.473,271.261 173.643,270.041C172.042,268.898 170.06,268.364 167.773,268.364C163.884,268.364 159.691,269.66 155.345,272.252C152.143,274.158 149.017,276.75 146.044,279.953C139.106,287.424 135.675,294.667 135.675,301.758C135.675,305.265 136.895,308.009 139.258,309.915C141.469,311.669 144.367,312.584 147.95,312.584C151.228,312.584 154.735,311.898 158.471,310.449C161.292,309.382 163.656,308.162 165.485,306.713C168.154,304.655 169.526,302.901 169.526,301.453C169.526,301.071 169.45,300.69 169.221,300.309C167.773,301.605 166.4,302.672 165.028,303.511C158.319,307.552 152.601,309.534 147.797,309.534C146.501,309.534 145.281,309.305 144.29,308.848C141.546,307.628 140.173,305.57 140.173,302.672C140.173,297.641 142.613,292.38 147.569,286.814C149.627,284.527 151.686,282.469 153.82,280.639C158.776,276.369 163.122,273.625 166.705,272.405C168.916,271.642 170.67,271.642 171.966,272.481C172.957,273.243 173.262,274.539 172.881,276.369C171.585,282.087 168.23,286.586 162.969,289.788L160.225,291.389C159.31,291.846 158.395,292.151 157.404,292.227C156.565,292.304 155.879,292.304 155.193,292.227C154.888,292.151 154.659,292.075 154.583,292.075C154.43,292.151 154.354,292.304 154.354,292.456C154.43,292.685 154.507,292.761 154.583,292.837C155.726,293.676 156.489,294.21 157.023,294.438C158.929,295.353 160.911,295.582 162.969,295.048C164.113,294.743 165.18,294.286 166.324,293.676C171.585,290.703 175.015,286.509 176.617,280.944C177.15,279.038 177.303,277.055 176.921,275.073ZM203.835,298.403C203.606,300.766 202.31,302.977 200.099,304.96C198.498,306.408 197.049,307.094 195.829,307.094C194.686,307.094 194.152,306.484 194.152,305.341C194.152,303.511 195.067,301.453 196.82,299.242C198.574,296.954 200.327,295.811 202.005,295.811C203.377,295.811 203.987,296.649 203.835,298.403ZM336.799,300.538C336.265,302.367 335.35,304.045 333.902,305.57C332.911,306.561 331.92,307.094 330.852,307.094C329.175,307.094 328.336,306.027 328.336,303.969C328.336,302.367 329.022,300.614 330.395,298.632C331.843,296.649 333.292,295.658 334.817,295.658C335.503,295.658 336.037,295.887 336.494,296.421C337.18,297.412 337.333,298.784 336.799,300.538ZM355.859,300.614C355.783,300.69 355.783,300.843 355.707,300.995L354.411,303.359L353.648,304.807C352.352,306.332 351.056,307.094 349.836,307.094C348.159,307.094 347.32,306.027 347.32,303.969C347.32,302.367 348.006,300.538 349.379,298.632C350.827,296.649 352.276,295.658 353.877,295.658C355.021,295.658 355.707,296.268 355.936,297.488C356.164,298.479 356.164,299.547 355.859,300.614ZM234.102,300.614C233.569,302.367 232.654,303.816 231.358,305.112C230.062,303.892 229.375,302.367 229.223,300.538C227.622,301.758 226.936,303.282 227.164,305.112C227.241,305.798 227.546,306.408 227.927,307.018C225.944,307.247 224.953,306.256 224.953,304.045C224.953,302.291 225.868,300.385 227.622,298.327C229.223,296.573 230.671,295.658 232.12,295.658C233.34,295.658 234.102,296.268 234.331,297.412C234.56,298.403 234.483,299.47 234.102,300.614Z" style="fill:rgb(247,229,213);fill-rule:nonzero;"/>
    </g>
    <g id="Cup" transform="matrix(0.786816,0,0,0.786816,105.595,-11.1695)">
        <g transform="matrix(0.669453,-0.498047,1.46379,0.872288,-226.118,168.299)">
            <path d="M445.241,180.974C450.337,184.17 448.308,190.384 448.111,195.918C447.929,198.927 441.517,203.043 434.084,203.117C381.821,203.293 329.694,203.293 277.707,203.117C270.73,203.047 266.062,200.458 265.854,196.981C265.723,193.345 265.721,189.682 265.854,185.997C266.034,182.987 272.447,178.872 279.88,178.797C332.14,178.625 384.27,178.622 436.258,178.797C440.099,178.836 443.125,179.71 445.241,180.974ZM440.021,182.995C438.533,182.186 436.548,181.597 434.018,181.572C382.042,181.396 330.195,181.041 277.675,181.573C274.576,181.625 271.576,183.394 271.517,185.044C271.473,188.659 271.39,192.281 271.519,195.862C271.669,198.362 274.972,200.293 279.946,200.343C331.922,200.518 383.772,200.869 436.29,200.342C439.393,200.289 442.389,198.519 442.448,196.87C442.491,193.256 442.575,189.633 442.446,186.052C442.373,184.827 441.433,183.799 440.021,182.995Z" style="fill:rgb(247,229,213);"/>
        </g>
        <g transform="matrix(1,0,0,1,459.574,-6.12891)">
            <path d="M-213.741,211.613C-212.476,211.69 -211.486,212.902 -211.675,214.163C-212.375,217.772 -213.231,221.348 -214.011,224.94C-214.523,227.075 -218.709,226.876 -218.296,224.108C-217.595,220.499 -216.739,216.923 -215.959,213.331C-215.715,212.311 -215.003,211.591 -213.741,211.613Z" style="fill:rgb(247,229,213);"/>
        </g>
        <g transform="matrix(1,0,0,1,-43.0274,-3.51953)">
            <path d="M223.893,195.989C244.47,196.113 265.572,200.903 281.615,214.594C289.895,221.659 296.206,231.709 296.148,242.943L295.858,298.573C295.888,298.789 295.915,299.005 295.941,299.221C297.836,316.035 284.902,331.691 272.056,340.249C239.536,361.913 190.673,359.711 163.058,330.306C162.271,329.468 161.509,328.607 160.773,327.723C155.478,321.36 151.494,313.544 150.802,305.182L150.708,304.442C150.708,283.738 150.606,263.033 150.71,242.328C150.734,240.711 150.774,240.447 150.863,239.565C152.405,224.245 166.289,211.886 179.265,205.535C181.491,204.445 183.769,203.461 186.083,202.574C198.071,197.98 211.001,195.963 223.893,195.989ZM222.982,200.355C203.059,200.475 182.243,205.178 167.126,218.747C160.382,224.8 155.123,232.972 155.074,242.643L155.074,304.005C155.074,304.005 155.267,306.509 155.679,308.458C159.095,324.615 173.496,335.867 187.79,342.416C219.24,356.824 260.878,352.354 283.331,324.294C288.974,317.242 292.79,308.17 291.512,299.021L291.491,298.708C291.588,280.018 291.686,261.328 291.783,242.638C291.706,227.378 277.625,215.234 265.347,209.298C252.509,203.092 238.09,200.441 223.876,200.355C223.578,200.354 223.28,200.354 222.982,200.355Z" style="fill:rgb(247,229,213);"/>
        </g>
        <g transform="matrix(1,0,0,0.817342,-44.1766,78.2407)">
            <path d="M225.043,139.756C244.51,139.899 264.395,145.574 279.761,159.59C293.116,171.77 302.219,192.648 294.169,213.501C286.03,234.584 266.315,246.311 246.808,251.2C219.25,258.108 188.224,253.378 166.92,231.686C156.252,220.824 148.777,203.01 153.305,185.402C159.368,161.827 181.113,148.003 201.509,142.675C209.225,140.659 217.109,139.737 225.043,139.756ZM224.131,145.098C200.193,145.274 174.4,154.952 162.049,176.007C156.732,185.072 154.622,196.941 157.807,207.885C164.09,229.468 184.23,241.308 203.628,246.067C230.887,252.756 262.172,247.718 281.799,225.026C290.178,215.339 295.439,200.244 291.437,186.082C286.582,168.903 272.123,157.661 257.481,151.523C247.073,147.16 236.058,145.179 225.025,145.098C224.727,145.098 224.429,145.098 224.131,145.098Z" style="fill:rgb(247,229,213);"/>
        </g>
        <g transform="matrix(1.01191,0,0,1.04093,-46.4714,-12.1779)">
            <path d="M207.116,209.461C210.931,209.497 214.754,209.958 218.282,211.396C226.215,214.411 236.469,208.42 248.561,210.072C262.541,212.032 277.716,218.078 282.775,232.712C284.345,237.251 286.907,240.513 291.086,245.472C291.863,246.395 292.57,247.373 293.19,248.403C293.817,249.442 294.426,250.642 293.75,251.668C292.74,253.199 290.65,252.465 289.389,250.394C286.171,245.203 281.076,242.088 279.044,235.166C274.555,220.213 255.053,212.709 239.55,213.909C231.292,214.547 222.591,217.722 215.957,214.984C205.139,210.676 190.02,213.817 181.522,220.368C176.023,224.608 171.735,230.233 168.269,236.227C168.269,236.227 165.224,239.523 164.307,243.3C163.232,247.728 163.043,252.342 163.191,256.913C163.191,256.913 163.003,259.585 160.99,259.527C158.576,259.457 158.763,255.267 158.9,251.896C159.167,245.278 159.844,237.844 164.555,234.035C164.555,234.035 167.595,229.092 170.476,225.5C178.35,215.684 190.908,209.621 206.367,209.462C206.617,209.46 206.867,209.46 207.116,209.461Z" style="fill:rgb(247,229,213);"/>
        </g>
        <g transform="matrix(1,0,0,1,-43.0274,-3.51953)">
            <path d="M190.893,228.066C193.095,228.095 193.72,232.321 191.197,232.717C188.82,233.089 187.059,228.044 190.893,228.066ZM188.832,231.378C188.832,231.378 188.822,231.348 188.832,231.378ZM188.715,231.024C188.795,231.265 188.649,230.462 188.715,231.024Z" style="fill:rgb(247,229,213);"/>
        </g>
        <g transform="matrix(1,0,0,1,-43.0274,-3.51953)">
            <path d="M213.801,228.418C216.087,228.447 216.776,234.397 212.956,232.839C211.064,232.067 211.51,228.403 213.801,228.418Z" style="fill:rgb(247,229,213);"/>
        </g>
        <g transform="matrix(1,0,0,1,-43.0274,-3.51953)">
            <path d="M236.275,246.942C238.36,246.961 239.52,251.344 236.358,251.454C234.119,251.532 232.413,246.931 236.275,246.942ZM236.358,251.308C236.358,251.308 236.492,251.296 236.358,251.308ZM234.101,249.161C234.101,249.161 234.101,249.159 234.101,249.161Z" style="fill:rgb(247,229,213);"/>
        </g>
        <g transform="matrix(1,0,0,1,-43.0274,-3.51953)">
            <path d="M204.451,252.844C206.817,252.885 208.782,257.094 205.328,257.519C205.063,257.552 204.792,257.535 204.532,257.47C202.318,256.917 201.302,252.824 204.451,252.844ZM202.886,255.561C202.886,255.561 202.873,255.318 202.886,255.561Z" style="fill:rgb(247,229,213);"/>
        </g>
        <g transform="matrix(1,0,0,1,-43.0274,-3.51953)">
            <path d="M247.782,224.83C249.657,224.867 250.589,227.841 248.882,228.986C248.882,228.986 245.042,230.096 244.998,227.263C244.976,225.848 246.472,224.817 247.782,224.83ZM245.573,226.831C245.567,226.969 245.587,226.733 245.573,226.831Z" style="fill:rgb(247,229,213);"/>
        </g>
        <g transform="matrix(1,0,0,1,-43.0274,-3.51953)">
            <path d="M256.79,242.147C258.822,242.164 259.793,245.467 257.414,246.589C256.073,247.222 254.27,246.069 254.3,244.563C254.3,244.563 255.138,242.146 256.79,242.147ZM258.664,244.699C258.659,244.811 258.666,244.642 258.664,244.699ZM254.603,244.151C254.6,244.227 254.609,244.11 254.603,244.151Z" style="fill:rgb(247,229,213);"/>
        </g>
        <g transform="matrix(0.811254,-0.584695,1.04856,0.476933,-130.135,287.282)">
            <path d="M404.045,130.339C407.154,134.392 406.124,145.829 398.06,146.135C384.231,146.313 370.501,146.31 356.873,146.135C352.001,145.95 352.404,140.236 352.468,135.082C352.561,132.633 355.72,128.799 359.367,128.661C373.194,128.487 386.923,128.49 400.554,128.661C402.132,128.721 403.29,129.401 404.045,130.339ZM399.374,133.768C398.948,133.288 397.905,133.025 397.905,133.025L357.497,133.025C357.448,136.916 356.575,141.733 359.522,141.771L399.93,141.771C399.967,138.807 400.637,135.262 399.374,133.768Z" style="fill:rgb(247,229,213);"/>
        </g>
        <path d="M222.046,195.462C224.997,195.643 224.848,201.923 223.875,203.756C223.014,205.377 219.866,205.015 219.764,202.799C219.714,199.489 218.973,195.369 222.046,195.462Z" style="fill:rgb(247,229,213);"/>
    </g>
    <g id="Rainbow" transform="matrix(1.17782,0,0,1.17782,-47.2451,-24.7419)">
        <path d="M396.259,225.397L391.116,225.397C369.44,199.981 336.122,181.001 297.075,173.062L297.047,168.99C338.582,177.268 373.876,197.807 396.259,225.397Z" style="fill:rgb(247,229,213);"/>
        <g transform="matrix(1.95799,0,0,1.95799,-54.3124,-850.066)">
            <path d="M177.57,513.225C204.385,517.605 227.001,531.043 239.937,549.27L234.895,549.27C222.722,533.567 202.643,521.91 178.926,517.631L177.57,513.225Z" style="fill:rgb(247,229,213);"/>
        </g>
        <g transform="matrix(1.95799,0,0,1.95799,-54.3124,-850.066)">
            <path d="M177.342,513.191L177.57,513.225L178.926,517.631L178.849,517.617L176.863,513.933L177.342,513.191Z" style="fill:rgb(247,229,213);"/>
        </g>
        <path d="M202.59,171.878L202.584,176.042C168.904,185.134 140.297,202.668 120.884,225.397L115.741,225.397C135.818,200.616 166.4,181.489 202.59,171.878Z" style="fill:rgb(247,229,213);"/>
        <g transform="matrix(1.95799,0,0,1.95799,-54.3124,-850.066)">
            <path d="M134.921,514.059L133.163,516.133C132.445,516.738 131.986,517.789 131.715,518.976C110.761,524.052 93.148,534.988 82.076,549.27L77.034,549.27C89.217,532.082 110.058,519.134 134.921,514.059Z" style="fill:rgb(247,229,213);"/>
        </g>
    </g>
</svg>
