<?xml version="1.0" encoding="UTF-8" standalone="no"?>
<!DOCTYPE svg PUBLIC "-//W3C//DTD SVG 1.1//EN" "http://www.w3.org/Graphics/SVG/1.1/DTD/svg11.dtd">
<svg width="100%" height="100%" viewBox="0 0 512 512" version="1.1" xmlns="http://www.w3.org/2000/svg" xmlns:xlink="http://www.w3.org/1999/xlink" xml:space="preserve" xmlns:serif="http://www.serif.com/" style="fill-rule:evenodd;clip-rule:evenodd;stroke-linejoin:round;stroke-miterlimit:2;">
    <g id="Community" transform="matrix(0.287491,0,0,0.287491,167.68,238.167)">
        <g transform="matrix(91.6667,0,0,91.6667,198.332,339.442)">
            <path d="M0.661,-0.655L0.661,-0.736L0.755,-0.736L0.755,-0.5L0.659,-0.5C0.635,-0.547 0.602,-0.584 0.56,-0.61C0.518,-0.637 0.472,-0.65 0.422,-0.65C0.373,-0.65 0.33,-0.637 0.292,-0.612C0.254,-0.586 0.224,-0.552 0.203,-0.509C0.182,-0.466 0.171,-0.42 0.171,-0.371C0.171,-0.32 0.182,-0.273 0.204,-0.23C0.227,-0.188 0.257,-0.153 0.296,-0.127C0.335,-0.102 0.379,-0.089 0.427,-0.089C0.486,-0.089 0.538,-0.107 0.583,-0.143C0.628,-0.179 0.661,-0.23 0.682,-0.296L0.776,-0.246C0.75,-0.164 0.706,-0.101 0.641,-0.055C0.577,-0.01 0.502,0.012 0.415,0.012C0.344,0.012 0.28,-0.005 0.225,-0.039C0.17,-0.073 0.127,-0.119 0.096,-0.176C0.065,-0.233 0.05,-0.297 0.05,-0.365C0.05,-0.44 0.066,-0.506 0.097,-0.564C0.128,-0.623 0.172,-0.668 0.227,-0.7C0.282,-0.732 0.346,-0.748 0.417,-0.748C0.465,-0.748 0.509,-0.74 0.549,-0.724C0.59,-0.708 0.627,-0.685 0.661,-0.655Z" style="fill:rgb(247,229,213);fill-rule:nonzero;"/>
        </g>
        <g transform="matrix(91.6667,0,0,91.6667,273.885,339.442)">
            <path d="M0.811,-0.37C0.811,-0.295 0.795,-0.229 0.761,-0.17C0.728,-0.112 0.683,-0.067 0.625,-0.035C0.566,-0.004 0.5,0.012 0.426,0.012C0.353,0.012 0.287,-0.004 0.23,-0.037C0.174,-0.07 0.129,-0.116 0.097,-0.175C0.066,-0.233 0.05,-0.299 0.05,-0.372C0.05,-0.445 0.066,-0.509 0.098,-0.566C0.131,-0.623 0.175,-0.668 0.232,-0.7C0.289,-0.732 0.354,-0.748 0.427,-0.748C0.502,-0.748 0.569,-0.732 0.627,-0.698C0.686,-0.665 0.731,-0.62 0.763,-0.563C0.795,-0.506 0.811,-0.441 0.811,-0.37ZM0.43,-0.086C0.481,-0.086 0.526,-0.099 0.565,-0.125C0.605,-0.152 0.636,-0.187 0.657,-0.23C0.679,-0.274 0.69,-0.321 0.69,-0.37C0.69,-0.421 0.678,-0.467 0.656,-0.51C0.633,-0.554 0.601,-0.588 0.561,-0.613C0.52,-0.637 0.475,-0.65 0.424,-0.65C0.374,-0.65 0.33,-0.638 0.292,-0.614C0.253,-0.589 0.223,-0.556 0.202,-0.513C0.181,-0.471 0.171,-0.423 0.171,-0.371C0.171,-0.316 0.181,-0.266 0.202,-0.223C0.223,-0.18 0.254,-0.146 0.293,-0.122C0.332,-0.098 0.378,-0.086 0.43,-0.086Z" style="fill:rgb(247,229,213);fill-rule:nonzero;"/>
        </g>
        <g transform="matrix(91.6667,0,0,91.6667,352.796,339.442)">
            <path d="M0.672,-0.736L0.927,-0.736L0.927,-0.644L0.838,-0.644L0.838,-0.092L0.927,-0.092L0.927,0L0.65,0L0.65,-0.092L0.737,-0.092L0.737,-0.644L0.484,0.008L0.462,0.008L0.211,-0.644L0.211,-0.092L0.292,-0.092L0.292,0L0.031,0L0.031,-0.092L0.12,-0.092L0.12,-0.644L0.031,-0.644L0.031,-0.736L0.283,-0.736L0.477,-0.232L0.672,-0.736Z" style="fill:rgb(247,229,213);fill-rule:nonzero;"/>
        </g>
        <g transform="matrix(91.6667,0,0,91.6667,440.613,339.442)">
            <path d="M0.672,-0.736L0.927,-0.736L0.927,-0.644L0.838,-0.644L0.838,-0.092L0.927,-0.092L0.927,0L0.65,0L0.65,-0.092L0.737,-0.092L0.737,-0.644L0.484,0.008L0.462,0.008L0.211,-0.644L0.211,-0.092L0.292,-0.092L0.292,0L0.031,0L0.031,-0.092L0.12,-0.092L0.12,-0.644L0.031,-0.644L0.031,-0.736L0.283,-0.736L0.477,-0.232L0.672,-0.736Z" style="fill:rgb(247,229,213);fill-rule:nonzero;"/>
        </g>
        <g transform="matrix(91.6667,0,0,91.6667,528.431,339.442)">
            <path d="M0.225,-0.644L0.225,-0.269C0.225,-0.203 0.238,-0.155 0.263,-0.124C0.288,-0.093 0.325,-0.078 0.374,-0.078C0.424,-0.078 0.461,-0.093 0.487,-0.124C0.513,-0.154 0.526,-0.202 0.526,-0.268L0.526,-0.644L0.44,-0.644L0.44,-0.736L0.728,-0.736L0.728,-0.644L0.636,-0.644L0.636,-0.258C0.636,-0.17 0.614,-0.103 0.57,-0.057C0.525,-0.011 0.46,0.012 0.374,0.012C0.287,0.012 0.222,-0.011 0.179,-0.056C0.135,-0.102 0.114,-0.171 0.114,-0.264L0.114,-0.644L0.023,-0.644L0.023,-0.736L0.312,-0.736L0.312,-0.644L0.225,-0.644Z" style="fill:rgb(247,229,213);fill-rule:nonzero;"/>
        </g>
        <g transform="matrix(91.6667,0,0,91.6667,597.091,339.442)">
            <path d="M0.596,-0.644L0.491,-0.644L0.491,-0.736L0.793,-0.736L0.793,-0.644L0.685,-0.644L0.685,0.008L0.571,0.008L0.218,-0.621L0.218,-0.092L0.323,-0.092L0.323,0L0.022,0L0.022,-0.092L0.127,-0.092L0.127,-0.644L0.022,-0.644L0.022,-0.736L0.273,-0.736L0.596,-0.164L0.596,-0.644Z" style="fill:rgb(247,229,213);fill-rule:nonzero;"/>
        </g>
        <g transform="matrix(91.6667,0,0,91.6667,671.794,339.442)">
            <path d="M0.223,-0.644L0.223,-0.092L0.303,-0.092L0.303,0L0.032,0L0.032,-0.092L0.112,-0.092L0.112,-0.644L0.032,-0.644L0.032,-0.736L0.303,-0.736L0.303,-0.644L0.223,-0.644Z" style="fill:rgb(247,229,213);fill-rule:nonzero;"/>
        </g>
        <g transform="matrix(91.6667,0,0,91.6667,702.588,339.442)">
            <path d="M0.538,-0.467L0.538,-0.644L0.386,-0.644L0.386,-0.092L0.482,-0.092L0.482,0L0.181,0L0.181,-0.092L0.275,-0.092L0.275,-0.644L0.124,-0.644L0.124,-0.467L0.033,-0.467L0.033,-0.736L0.629,-0.736L0.629,-0.467L0.538,-0.467Z" style="fill:rgb(247,229,213);fill-rule:nonzero;"/>
        </g>
        <g transform="matrix(91.6667,0,0,91.6667,763.192,339.442)">
            <path d="M0.232,-0.644L0.393,-0.417L0.542,-0.644L0.45,-0.644L0.45,-0.736L0.744,-0.736L0.744,-0.644L0.648,-0.644L0.442,-0.335L0.442,-0.092L0.543,-0.092L0.543,0L0.232,0L0.232,-0.092L0.331,-0.092L0.331,-0.335L0.112,-0.644L0.022,-0.644L0.022,-0.736L0.324,-0.736L0.324,-0.644L0.232,-0.644Z" style="fill:rgb(247,229,213);fill-rule:nonzero;"/>
        </g>
    </g>
    <g transform="matrix(1.84976,0,0,1.84976,23.5877,-733.22)">
        <g id="Boxes">
            <rect x="94.736" y="555.319" width="127.076" height="2.128" style="fill:rgb(247,229,213);"/>
        </g>
    </g>
    <g id="Cup" transform="matrix(0.691922,0,0,0.691922,-58.5463,79.1473)">
        <g transform="matrix(0.669453,-0.498047,1.46379,0.872288,-226.118,168.299)">
            <path d="M445.241,180.974C450.337,184.17 448.308,190.384 448.111,195.918C447.929,198.927 441.517,203.043 434.084,203.117C381.821,203.293 329.694,203.293 277.707,203.117C270.73,203.047 266.062,200.458 265.854,196.981C265.723,193.345 265.721,189.682 265.854,185.997C266.034,182.987 272.447,178.872 279.88,178.797C332.14,178.625 384.27,178.622 436.258,178.797C440.099,178.836 443.125,179.71 445.241,180.974ZM440.021,182.995C438.533,182.186 436.548,181.597 434.018,181.572C382.042,181.396 330.195,181.041 277.675,181.573C274.576,181.625 271.576,183.394 271.517,185.044C271.473,188.659 271.39,192.281 271.519,195.862C271.669,198.362 274.972,200.293 279.946,200.343C331.922,200.518 383.772,200.869 436.29,200.342C439.393,200.289 442.389,198.519 442.448,196.87C442.491,193.256 442.575,189.633 442.446,186.052C442.373,184.827 441.433,183.799 440.021,182.995Z" style="fill:rgb(247,229,213);"/>
        </g>
        <g transform="matrix(1,0,0,1,459.574,-6.12891)">
            <path d="M-213.741,211.613C-212.476,211.69 -211.486,212.902 -211.675,214.163C-212.375,217.772 -213.231,221.348 -214.011,224.94C-214.523,227.075 -218.709,226.876 -218.296,224.108C-217.595,220.499 -216.739,216.923 -215.959,213.331C-215.715,212.311 -215.003,211.591 -213.741,211.613Z" style="fill:rgb(247,229,213);"/>
        </g>
        <g transform="matrix(1,0,0,1,-43.0274,-3.51953)">
            <path d="M223.893,195.989C244.47,196.113 265.572,200.903 281.615,214.594C289.895,221.659 296.206,231.709 296.148,242.943L295.858,298.573C295.888,298.789 295.915,299.005 295.941,299.221C297.836,316.035 284.902,331.691 272.056,340.249C257.575,349.896 239.852,356.562 222.208,356.449C200.231,356.309 178.376,346.617 163.058,330.306C162.271,329.468 161.509,328.607 160.773,327.723C155.478,321.36 151.494,313.544 150.802,305.182L150.708,304.442C150.708,283.738 150.606,263.033 150.71,242.328C150.734,240.711 150.774,240.447 150.863,239.565C152.405,224.245 166.289,211.886 179.265,205.535C181.491,204.445 183.769,203.461 186.083,202.574C198.071,197.98 211.001,195.963 223.893,195.989ZM222.982,200.355C203.059,200.475 182.243,205.178 167.126,218.747C160.382,224.8 155.123,232.972 155.074,242.643L155.074,304.005C155.074,304.005 155.267,306.509 155.679,308.458C159.095,324.615 173.496,335.867 187.79,342.416C219.24,356.824 260.878,352.354 283.331,324.294C288.974,317.242 292.79,308.17 291.512,299.021L291.491,298.708C291.588,280.018 291.686,261.328 291.783,242.638C291.706,227.378 277.625,215.234 265.347,209.298C252.509,203.092 238.09,200.441 223.876,200.355C223.578,200.354 223.28,200.354 222.982,200.355Z" style="fill:rgb(247,229,213);"/>
        </g>
        <g transform="matrix(1,0,0,0.817342,-44.1766,78.2407)">
            <path d="M225.043,139.756C244.51,139.899 264.395,145.574 279.761,159.59C293.116,171.77 302.219,192.648 294.169,213.501C286.03,234.584 266.315,246.311 246.808,251.2C219.25,258.108 188.224,253.378 166.92,231.686C156.252,220.824 148.777,203.01 153.305,185.402C159.368,161.827 181.113,148.003 201.509,142.675C209.225,140.659 217.109,139.737 225.043,139.756ZM224.131,145.098C200.193,145.274 174.4,154.952 162.049,176.007C156.732,185.072 154.622,196.941 157.807,207.885C164.09,229.468 184.23,241.308 203.628,246.067C230.887,252.756 262.172,247.718 281.799,225.026C290.178,215.339 295.439,200.244 291.437,186.082C286.582,168.903 272.123,157.661 257.481,151.523C247.073,147.16 236.058,145.179 225.025,145.098C224.727,145.098 224.429,145.098 224.131,145.098Z" style="fill:rgb(247,229,213);"/>
        </g>
        <g transform="matrix(1.01191,0,0,1.04093,-46.4714,-12.1779)">
            <path d="M207.116,209.461C210.931,209.497 214.754,209.958 218.282,211.396C226.215,214.411 236.469,208.42 248.561,210.072C262.541,212.032 277.716,218.078 282.775,232.712C284.345,237.251 286.907,240.513 291.086,245.472C291.863,246.395 292.57,247.373 293.19,248.403C293.817,249.442 294.426,250.642 293.75,251.668C292.74,253.199 290.65,252.465 289.389,250.394C286.171,245.203 281.076,242.088 279.044,235.166C274.555,220.213 255.053,212.709 239.55,213.909C231.292,214.547 222.591,217.722 215.957,214.984C205.139,210.676 190.02,213.817 181.522,220.368C176.023,224.608 171.735,230.233 168.269,236.227C168.269,236.227 165.224,239.523 164.307,243.3C163.232,247.728 163.043,252.342 163.191,256.913C163.191,256.913 163.003,259.585 160.99,259.527C158.576,259.457 158.763,255.267 158.9,251.896C159.167,245.278 159.844,237.844 164.555,234.035C164.555,234.035 167.595,229.092 170.476,225.5C178.35,215.684 190.908,209.621 206.367,209.462C206.617,209.46 206.867,209.46 207.116,209.461Z" style="fill:rgb(247,229,213);"/>
        </g>
        <g transform="matrix(1,0,0,1,-43.0274,-3.51953)">
            <path d="M190.893,228.066C193.095,228.095 193.72,232.321 191.197,232.717C188.82,233.089 187.059,228.044 190.893,228.066ZM188.832,231.378C188.832,231.378 188.822,231.348 188.832,231.378ZM188.715,231.024C188.795,231.265 188.649,230.462 188.715,231.024Z" style="fill:rgb(247,229,213);"/>
        </g>
        <g transform="matrix(1,0,0,1,-43.0274,-3.51953)">
            <path d="M213.801,228.418C216.087,228.447 216.776,234.397 212.956,232.839C211.064,232.067 211.51,228.403 213.801,228.418Z" style="fill:rgb(247,229,213);"/>
        </g>
        <g transform="matrix(1,0,0,1,-43.0274,-3.51953)">
            <path d="M236.275,246.942C238.36,246.961 239.52,251.344 236.358,251.454C234.119,251.532 232.413,246.931 236.275,246.942ZM236.358,251.308C236.358,251.308 236.492,251.296 236.358,251.308ZM234.101,249.161C234.101,249.161 234.101,249.159 234.101,249.161Z" style="fill:rgb(247,229,213);"/>
        </g>
        <g transform="matrix(1,0,0,1,-43.0274,-3.51953)">
            <path d="M204.451,252.844C206.817,252.885 208.782,257.094 205.328,257.519C205.063,257.552 204.792,257.535 204.532,257.47C202.318,256.917 201.302,252.824 204.451,252.844ZM202.886,255.561C202.886,255.561 202.873,255.318 202.886,255.561Z" style="fill:rgb(247,229,213);"/>
        </g>
        <g transform="matrix(1,0,0,1,-43.0274,-3.51953)">
            <path d="M247.782,224.83C249.657,224.867 250.589,227.841 248.882,228.986C248.882,228.986 245.042,230.096 244.998,227.263C244.976,225.848 246.472,224.817 247.782,224.83ZM245.573,226.831C245.567,226.969 245.587,226.733 245.573,226.831Z" style="fill:rgb(247,229,213);"/>
        </g>
        <g transform="matrix(1,0,0,1,-43.0274,-3.51953)">
            <path d="M256.79,242.147C258.822,242.164 259.793,245.467 257.414,246.589C256.073,247.222 254.27,246.069 254.3,244.563C254.3,244.563 255.138,242.146 256.79,242.147ZM258.664,244.699C258.659,244.811 258.666,244.642 258.664,244.699ZM254.603,244.151C254.6,244.227 254.609,244.11 254.603,244.151Z" style="fill:rgb(247,229,213);"/>
        </g>
        <g transform="matrix(0.811254,-0.584695,1.04856,0.476933,-130.135,287.282)">
            <path d="M404.045,130.339C407.154,134.392 406.124,145.829 398.06,146.135C384.231,146.313 370.501,146.31 356.873,146.135C352.001,145.95 352.404,140.236 352.468,135.082C352.561,132.633 355.72,128.799 359.367,128.661C373.194,128.487 386.923,128.49 400.554,128.661C402.132,128.721 403.29,129.401 404.045,130.339ZM399.374,133.768C398.948,133.288 397.905,133.025 397.905,133.025L357.497,133.025C357.448,136.916 356.575,141.733 359.522,141.771L399.93,141.771C399.967,138.807 400.637,135.262 399.374,133.768Z" style="fill:rgb(247,229,213);"/>
        </g>
        <path d="M222.046,195.462C224.997,195.643 224.848,201.923 223.875,203.756C223.014,205.377 219.866,205.015 219.764,202.799C219.714,199.489 218.973,195.369 222.046,195.462Z" style="fill:rgb(247,229,213);"/>
    </g>
    <path d="M500.381,274.046L132.331,274.046L154.11,236.621L136.701,207.27L146.635,199.904L500.381,199.904L482.165,236.621L500.381,274.046ZM440.716,241.848C439.856,244.696 438.314,247.195 436.091,247.195C434.488,247.195 433.745,246.336 433.745,244.734C433.745,244.219 433.802,243.647 433.973,242.903L438.094,223.447L429.853,223.447L429.224,226.48L429.224,226.079C429.224,224.42 427.851,223.161 424.589,223.161C414.632,223.161 409.882,235.464 409.882,243.189C409.882,243.397 409.886,243.601 409.893,243.8C408.38,247.345 406.4,248.923 403.416,249.999L409.081,223.447L400.841,223.447L400.212,226.423L400.212,226.079C400.212,224.42 398.838,223.161 395.576,223.161C385.62,223.161 380.87,235.464 380.87,243.189C380.87,243.374 380.873,243.556 380.878,243.734C379.975,245.594 378.676,246.851 376.979,246.851C375.377,246.851 374.633,246.336 374.633,244.734C374.633,244.219 374.69,243.647 374.862,242.903L378.982,223.447L370.741,223.447L366.85,241.816C365.992,244.677 364.504,246.851 362.272,246.851C361.013,246.851 360.556,245.821 360.556,244.505C360.556,243.99 360.613,243.475 360.727,242.903L364.847,223.447L356.607,223.447L352.716,241.816C352.43,243.189 352.258,244.448 352.258,245.535C352.258,250.342 354.948,252.402 358.381,252.402C360.785,252.402 363.989,251.658 366.85,246.966C367.194,250.514 369.254,252.402 372.515,252.402C374.868,252.402 378.416,251.672 381.415,247.205C382.586,250.975 385.482,252.402 388.481,252.402C391.456,252.402 393.688,251.029 395.348,249.255L394.661,252.288C390.369,253.604 385.333,256.007 385.333,260.814C385.333,264.533 388.252,266.365 391.742,266.365C395.519,266.365 400.326,264.82 402.043,256.637L402.901,252.516C405.365,251.841 408.215,250.586 410.474,247.352C411.674,251.012 414.534,252.402 417.493,252.402C421.556,252.402 424.245,249.77 426.019,247.137C426.363,250.571 428.423,252.402 431.627,252.402C433.647,252.402 436.546,251.864 439.224,248.888L438.551,252.059L446.792,252.059L451.369,230.314C452.8,228.998 453.83,228.139 455.547,228.139C457.263,228.139 455.661,231.916 458.866,231.916C461.67,231.916 462.986,229.742 462.986,227.739C462.986,225.564 461.612,223.447 459.037,223.447C456.291,223.447 454.116,225.278 452.113,226.995L452.857,223.447L444.617,223.447L440.716,241.848ZM199.138,242.046C196.503,245.423 192.54,247.481 188.198,247.481C182.705,247.481 181.332,243.818 181.332,238.554C181.332,226.88 186.939,211.831 193.234,211.831C195.809,211.831 196.725,213.49 196.725,215.321C196.725,217.496 195.466,219.899 194.092,220.586C195.18,221.845 196.439,222.074 197.354,222.074C200.273,222.074 201.36,219.842 201.36,216.809C201.36,211.258 197.182,209.141 191.803,209.141C176.811,209.141 171.832,228.54 171.832,238.897C171.832,249.198 175.895,252.974 184.364,252.974C188.688,252.974 194.983,250.923 198.731,245.839C198.843,250.429 201.49,252.402 204.85,252.402C207.254,252.402 210.458,251.658 213.32,246.966C213.663,250.514 215.723,252.402 218.985,252.402C221.005,252.402 223.907,251.864 226.585,248.883L222.876,266.365L231.517,264.305L234.492,250.342C235.122,251.429 236.495,252.402 239.356,252.402C250.458,252.402 253.433,239.927 253.433,232.202C253.433,225.393 250.343,223.161 246.452,223.161C243.591,223.161 241.416,224.191 239.757,225.621L240.672,221.33L232.432,221.33L228.085,241.816L228.083,241.816C227.225,244.677 225.68,246.851 223.448,246.851C221.846,246.851 221.102,246.336 221.102,244.734C221.102,244.219 221.159,243.647 221.331,242.903L225.451,223.447L217.211,223.447L213.32,241.816C212.461,244.677 210.973,246.851 208.742,246.851C207.483,246.851 207.025,245.821 207.025,244.505C207.025,243.99 207.082,243.475 207.197,242.903L211.317,223.447L203.076,223.447L199.185,241.816C199.169,241.893 199.154,241.969 199.138,242.046ZM294.127,233.742L290.342,251.601C284.906,253.26 280.5,254.92 280.5,260.184C280.5,263.904 283.762,266.365 287.252,266.365C291.029,266.365 295.779,264.82 297.495,256.637L304.076,225.736L308.311,225.736L308.711,223.447L304.534,223.447L305.507,218.926C306.308,215.092 308.253,214.234 309.512,214.234C310.657,214.234 311.687,214.863 311.687,216.18C311.687,216.695 311.63,217.152 311.572,217.725L314.262,217.725C314.376,217.038 314.433,216.294 314.433,215.378C314.433,211.659 311.172,209.198 307.681,209.198C303.904,209.198 298.983,210.743 297.266,218.926L294.69,231.085C293.089,231.753 291.459,232.202 290.113,232.202C289.942,232.202 289.713,232.202 289.484,232.088C289.484,226.079 287.081,222.932 282.159,222.932C270.371,222.932 266.48,236.666 266.48,243.246C266.48,249.77 270.314,252.288 275.636,252.288C282.674,252.288 288.397,245.65 289.312,235.063C291.01,234.784 292.642,234.335 294.127,233.742ZM388.481,260.013C388.481,257.724 391.17,256.236 394.089,255.149L393.745,256.808C393.001,260.184 391.628,261.901 390.426,261.901C389.167,261.901 388.481,260.814 388.481,260.013ZM283.647,259.383C283.647,256.293 286.337,254.691 289.942,253.489L289.198,256.808C288.454,260.184 287.138,261.272 285.936,261.272C284.677,261.272 283.647,260.184 283.647,259.383ZM351.228,216.008C351.228,209.713 344.705,209.141 342.015,209.141C334.633,209.141 328.797,213.433 328.797,219.384C328.797,227.796 340.527,231.287 340.527,241.072C340.527,245.879 337.723,248.682 333.889,248.682C330.227,248.682 328.396,246.05 328.396,243.189C328.396,239.241 332.001,237.81 335.091,237.81C334.92,234.834 332.058,234.033 330.056,234.033C326.05,234.033 321.644,237.238 321.644,243.418C321.644,250.399 327.252,253.26 333.775,253.26C342.072,253.26 349.855,248.568 349.855,238.954C349.855,226.594 336.98,225.45 336.98,217.038C336.98,213.604 339.097,211.831 342.244,211.831C345.391,211.831 346.479,213.662 346.479,215.665C346.479,217.553 345.449,219.67 343.904,220.586C344.648,221.444 345.506,221.787 346.536,221.787C349.397,221.787 351.228,219.327 351.228,216.008ZM237.582,247.424C236.266,247.424 235.637,246.737 235.408,246.107L238.784,230.085C239.871,228.254 241.473,227.281 242.732,227.281C243.762,227.281 245.594,227.624 245.594,232.03C245.594,237.409 243.591,247.424 237.582,247.424ZM277.925,247.137C275.75,247.137 275.006,246.279 275.006,242.502C275.006,236.894 278.554,226.423 282.617,226.423C284.105,226.423 284.677,227.338 284.792,229.742C283.762,230.199 283.018,231.229 283.018,232.832C283.018,233.976 283.361,234.949 284.563,235.235C283.647,241.987 280.729,247.137 277.925,247.137ZM426.363,226.709C428.194,226.709 428.709,228.196 428.709,228.883L425.962,241.816C425.275,245.135 422.872,246.851 421.213,246.851C420.183,246.851 418.351,246.794 418.351,242.388C418.351,237.009 421.499,226.709 426.363,226.709ZM397.35,226.709C399.182,226.709 399.639,228.196 399.697,228.826L396.778,242.388C395.977,245.306 393.745,246.851 392.2,246.851C391.17,246.851 389.339,246.794 389.339,242.388C389.339,237.009 392.486,226.709 397.35,226.709Z" style="fill:rgb(247,229,213);fill-rule:nonzero;"/>
</svg>
